<svg width="94" height="40" viewBox="0 0 94 40" fill="none" xmlns="http://www.w3.org/2000/svg">
<rect width="94" height="40" rx="20" fill="#FF3366" fill-opacity="0.25"/>
<path fill-rule="evenodd" clip-rule="evenodd" d="M19.6667 18.3333C20.3567 18.3333 20.9167 17.7733 20.9167 17.0833C20.9167 16.3933 20.3567 15.8333 19.6667 15.8333C18.9767 15.8333 18.4167 16.3933 18.4167 17.0833C18.4167 17.7733 18.9767 18.3333 19.6667 18.3333ZM28 25.8333H18.4675L24.305 20.9625C24.51 20.7883 24.8817 20.7892 25.0825 20.9617L28.8333 24.1617V25C28.8333 25.46 28.46 25.8333 28 25.8333ZM18 14.1667H28C28.46 14.1667 28.8333 14.54 28.8333 15V21.97L26.1642 19.6933C25.3392 18.9917 24.0483 18.9917 23.2308 19.6883L17.1667 24.7483V15C17.1667 14.54 17.54 14.1667 18 14.1667ZM28 12.5H18C16.6217 12.5 15.5 13.6217 15.5 15V25C15.5 26.3783 16.6217 27.5 18 27.5H28C29.3783 27.5 30.5 26.3783 30.5 25V15C30.5 13.6217 29.3783 12.5 28 12.5Z" fill="#FF3366"/>
<mask id="mask0" mask-type="alpha" maskUnits="userSpaceOnUse" x="15" y="12" width="16" height="16">
<path fill-rule="evenodd" clip-rule="evenodd" d="M19.6667 18.3333C20.3567 18.3333 20.9167 17.7733 20.9167 17.0833C20.9167 16.3933 20.3567 15.8333 19.6667 15.8333C18.9767 15.8333 18.4167 16.3933 18.4167 17.0833C18.4167 17.7733 18.9767 18.3333 19.6667 18.3333ZM28 25.8333H18.4675L24.305 20.9625C24.51 20.7883 24.8817 20.7892 25.0825 20.9617L28.8333 24.1617V25C28.8333 25.46 28.46 25.8333 28 25.8333ZM18 14.1667H28C28.46 14.1667 28.8333 14.54 28.8333 15V21.97L26.1642 19.6933C25.3392 18.9917 24.0483 18.9917 23.2308 19.6883L17.1667 24.7483V15C17.1667 14.54 17.54 14.1667 18 14.1667ZM28 12.5H18C16.6217 12.5 15.5 13.6217 15.5 15V25C15.5 26.3783 16.6217 27.5 18 27.5H28C29.3783 27.5 30.5 26.3783 30.5 25V15C30.5 13.6217 29.3783 12.5 28 12.5Z" fill="white"/>
</mask>
<g mask="url(#mask0)">
<rect x="13" y="10" width="20" height="20" fill="#FF3366"/>
</g>
<path d="M39.4014 15.1973V25H40.9395V21.5H43.3184C44.248 21.5 45.0342 21.1992 45.6631 20.584C46.292 19.9756 46.6133 19.2305 46.6133 18.3555C46.6133 17.4805 46.292 16.7354 45.6631 16.1201C45.0342 15.5049 44.248 15.2041 43.3184 15.2041L39.4014 15.1973ZM43.3184 16.6055C43.7969 16.6055 44.2139 16.7695 44.5557 17.1113C44.8975 17.4463 45.0684 17.8633 45.0684 18.3555C45.0684 18.8477 44.8975 19.2646 44.5557 19.5996C44.2139 19.9346 43.7969 20.0986 43.3184 20.0986H40.9395V16.5986L43.3184 16.6055ZM49.7545 15.1973H48.36V25H49.7545V21.3633C49.7545 20.748 49.9118 20.2627 50.2262 19.9209C50.5407 19.5791 50.9713 19.4014 51.5045 19.4014C51.9625 19.4014 52.3454 19.5654 52.653 19.8799C52.9606 20.2012 53.1178 20.6045 53.1178 21.0898V25.0068H54.5192V21.0898C54.5192 20.1875 54.2662 19.4766 53.7604 18.9434C53.2545 18.4102 52.5914 18.1436 51.7848 18.1436C51.5524 18.1436 51.32 18.1709 51.0944 18.2324C50.862 18.2939 50.6774 18.3623 50.527 18.4375C50.3766 18.5127 50.233 18.5947 50.1032 18.6904C49.9733 18.7861 49.8844 18.8545 49.8434 18.8955C49.8024 18.9365 49.7682 18.9639 49.7545 18.9844V15.1973ZM61.5159 21.6436C61.5159 22.2725 61.304 22.7988 60.8938 23.2295C60.4768 23.667 59.9846 23.8789 59.4173 23.8789C58.843 23.8789 58.3509 23.667 57.9339 23.2295C57.5169 22.7988 57.3118 22.2725 57.3118 21.6436C57.3118 21.0146 57.5169 20.4883 57.9339 20.0508C58.3509 19.6201 58.843 19.4014 59.4173 19.4014C59.9846 19.4014 60.4768 19.6201 60.8938 20.0508C61.304 20.4883 61.5159 21.0146 61.5159 21.6436ZM55.9173 21.6436C55.9173 22.5869 56.2591 23.4004 56.9563 24.0977C57.6536 24.7949 58.4739 25.1436 59.4173 25.1436C60.3606 25.1436 61.1741 24.7949 61.8714 24.0977C62.5686 23.4004 62.9173 22.5869 62.9173 21.6436C62.9173 20.7002 62.5686 19.8799 61.8714 19.1826C61.1741 18.4854 60.3606 18.1367 59.4173 18.1367C58.4739 18.1367 57.6536 18.4854 56.9563 19.1826C56.2591 19.8799 55.9173 20.7002 55.9173 21.6436ZM65.1562 17.4395C65.1562 18 64.9237 18.2803 64.4589 18.2803H63.7548V19.5381H65.0195V23.0381C65.0126 24.4395 65.662 25.1367 66.9677 25.1367C67.3505 25.1367 67.6786 25.0957 67.9521 25V23.7422L67.8495 23.7695C67.788 23.7969 67.6991 23.8242 67.5829 23.8447C67.4667 23.8721 67.3573 23.8789 67.248 23.8789C67.0087 23.8789 66.8105 23.8037 66.6532 23.6396C66.4892 23.4824 66.414 23.2773 66.414 23.0244V19.5381H67.8154V18.2803H66.414V16.0381H65.1562V17.4395ZM74.6754 21.6436C74.6754 22.2725 74.4634 22.7988 74.0533 23.2295C73.6363 23.667 73.1441 23.8789 72.5767 23.8789C72.0025 23.8789 71.5103 23.667 71.0933 23.2295C70.6763 22.7988 70.4713 22.2725 70.4713 21.6436C70.4713 21.0146 70.6763 20.4883 71.0933 20.0508C71.5103 19.6201 72.0025 19.4014 72.5767 19.4014C73.1441 19.4014 73.6363 19.6201 74.0533 20.0508C74.4634 20.4883 74.6754 21.0146 74.6754 21.6436ZM69.0767 21.6436C69.0767 22.5869 69.4185 23.4004 70.1158 24.0977C70.813 24.7949 71.6334 25.1436 72.5767 25.1436C73.5201 25.1436 74.3336 24.7949 75.0308 24.0977C75.7281 23.4004 76.0767 22.5869 76.0767 21.6436C76.0767 20.7002 75.7281 19.8799 75.0308 19.1826C74.3336 18.4854 73.5201 18.1367 72.5767 18.1367C71.6334 18.1367 70.813 18.4854 70.1158 19.1826C69.4185 19.8799 69.0767 20.7002 69.0767 21.6436Z" fill="#FF3366"/>
</svg>
